<svg width="18" height="19" viewBox="0 0 18 19" fill="none" xmlns="http://www.w3.org/2000/svg">
<g clip-path="url(#clip0_2001_64)">
<path d="M11.5034 8.67663C10.797 8.28628 10.0461 7.98887 9.30254 7.68031C8.8713 7.50187 8.45865 7.29368 8.09433 7.00371C7.37683 6.4312 7.51438 5.5018 8.35456 5.13376C8.59248 5.02967 8.84156 4.99621 9.09436 4.98134C10.0684 4.92929 10.9941 5.10774 11.8751 5.53154C12.3138 5.74345 12.4588 5.67653 12.6075 5.21926C12.7636 4.73598 12.8937 4.24525 13.0387 3.75825C13.1354 3.4311 13.0164 3.21548 12.7079 3.07793C12.1428 2.82885 11.5628 2.65041 10.9532 2.55375C10.1576 2.43107 10.1576 2.42735 10.1539 1.62807C10.1502 0.501637 10.1502 0.501637 9.02001 0.501637C8.85643 0.501637 8.69286 0.497919 8.52928 0.501637C8.00139 0.516507 7.91216 0.609447 7.89729 1.14106C7.88986 1.37899 7.89729 1.61692 7.89358 1.85856C7.88986 2.5649 7.88614 2.55375 7.20954 2.79911C5.5738 3.39393 4.56261 4.5092 4.4548 6.29365C4.35814 7.87363 5.18345 8.94058 6.48089 9.71756C7.28017 10.1971 8.16496 10.4797 9.01257 10.8551C9.34344 11.0001 9.65943 11.1674 9.93454 11.3979C10.7487 12.0708 10.6 13.1898 9.63341 13.6136C9.11666 13.8404 8.57018 13.8961 8.00882 13.8255C7.14262 13.7177 6.3136 13.4909 5.5329 13.0857C5.07564 12.8478 4.94181 12.911 4.78567 13.4054C4.65183 13.8329 4.53287 14.2642 4.41391 14.6954C4.25405 15.2754 4.31353 15.4129 4.86745 15.6843C5.5738 16.0263 6.32847 16.201 7.09801 16.3237C7.70026 16.4204 7.71885 16.4464 7.72628 17.071C7.73 17.3535 7.73 17.6398 7.73372 17.9223C7.73744 18.2792 7.90845 18.4874 8.27649 18.4948C8.69286 18.5022 9.11295 18.5022 9.52932 18.4911C9.87134 18.4836 10.0461 18.2978 10.0461 17.952C10.0461 17.5654 10.0647 17.1751 10.0498 16.7884C10.0312 16.3944 10.2022 16.1936 10.5814 16.0895C11.455 15.8516 12.1986 15.3832 12.7711 14.6843C14.3622 12.7511 13.7562 9.92202 11.5034 8.67663Z" fill="url(#paint0_linear_2001_64)"/>
</g>
<defs>
<linearGradient id="paint0_linear_2001_64" x1="9.00001" y1="0.499985" x2="9.00001" y2="18.5" gradientUnits="userSpaceOnUse">
<stop stop-color="#01710C"/>
<stop offset="1" stop-color="#54627B"/>
</linearGradient>
<clipPath id="clip0_2001_64">
<rect width="18" height="18" fill="white" transform="translate(0 0.5)"/>
</clipPath>
</defs>
</svg>
