<svg width="18" height="19" viewBox="0 0 18 19" fill="none" xmlns="http://www.w3.org/2000/svg">
<g id="fi_503849" clip-path="url(#clip0_23_460)">
<g id="Group">
<g id="Group_2">
<path id="Vector" d="M17.4606 11.4725L15.8061 10.1788C15.8271 9.97925 15.8451 9.74602 15.8451 9.49926C15.8451 9.2525 15.8278 9.01927 15.8061 8.81976L17.4621 7.52527C17.7696 7.28227 17.8536 6.85101 17.6579 6.49179L15.9373 3.515C15.7536 3.17901 15.3508 3.0065 14.9421 3.15725L12.9899 3.94099C12.6156 3.67099 12.2233 3.443 11.8176 3.26075L11.5206 1.19001C11.4718 0.797 11.1298 0.5 10.7256 0.5H7.27562C6.87136 0.5 6.53014 0.797 6.48211 1.184L6.18437 3.26226C5.79136 3.43927 5.40514 3.66427 5.01437 3.9425L3.05687 3.15651C2.69009 3.01476 2.25134 3.17374 2.06909 3.50825L0.346362 6.48876C0.143123 6.83227 0.227112 7.27851 0.541373 7.52752L2.19586 8.82127C2.1696 9.07401 2.15687 9.29377 2.15687 9.50004C2.15687 9.7063 2.16964 9.92602 2.19586 10.1795L0.539862 11.474C0.23235 11.7178 0.1491 12.149 0.34485 12.5075L2.06536 15.4843C2.24912 15.8195 2.64811 15.9935 3.0606 15.842L5.01286 15.0583C5.38636 15.3275 5.7786 15.5555 6.18437 15.7385L6.48137 17.8085C6.5301 18.203 6.87136 18.5 7.27636 18.5H10.7263C11.1306 18.5 11.4726 18.203 11.5206 17.816L11.8183 15.7385C12.2114 15.5608 12.5968 15.3365 12.9883 15.0575L14.9458 15.8435C15.0403 15.8802 15.1386 15.899 15.2399 15.899C15.5308 15.899 15.7986 15.74 15.9336 15.4925L17.6616 12.5C17.8536 12.149 17.7696 11.7178 17.4606 11.4725ZM9.0006 12.5C7.34611 12.5 6.00061 11.1545 6.00061 9.5C6.00061 7.84551 7.34611 6.50001 9.0006 6.50001C10.6551 6.50001 12.0006 7.84551 12.0006 9.5C12.0006 11.1545 10.6551 12.5 9.0006 12.5Z" fill="#54627B"/>
</g>
</g>
</g>
<defs>
<clipPath id="clip0_23_460">
<rect width="18" height="18" fill="white" transform="translate(0 0.5)"/>
</clipPath>
</defs>
</svg>
