<svg width="15" height="17" viewBox="0 0 15 17" fill="none" xmlns="http://www.w3.org/2000/svg">
<g id="invisible 1" clip-path="url(#clip0_23_266)">
<g id="Group">
<g id="Group_2">
<g id="Group_3">
<path id="Vector" d="M7.31641 5.80765L9.39382 8.24119L9.40371 8.11371C9.40371 6.83513 8.5167 5.79606 7.42522 5.79606L7.31641 5.80765Z" fill="#CFDFFD"/>
<path id="Vector_2" d="M7.42541 4.25099C9.24562 4.25099 10.7229 5.98151 10.7229 8.11376C10.7229 8.61205 10.6372 9.08717 10.4888 9.52365L12.4178 11.7834C13.4136 10.81 14.1985 9.5507 14.6832 8.11376C13.539 4.72227 10.7262 2.31962 7.42544 2.31962C6.50214 2.31962 5.61844 2.51274 4.79736 2.86039L6.22187 4.52523C6.59445 4.35528 7.00004 4.25099 7.42541 4.25099Z" fill="#CFDFFD"/>
<path id="Vector_3" d="M0.830383 2.14575L2.33403 3.90717L2.63411 4.2587C1.54595 5.25529 0.685305 6.58023 0.170898 8.11372C1.31184 11.5052 4.12787 13.9079 7.42536 13.9079C8.44759 13.9079 9.42363 13.6761 10.3173 13.255L10.5976 13.5834L12.52 15.8392L13.3608 14.8581L1.67124 1.16075L0.830383 2.14575ZM4.47741 6.41411L5.49633 7.60771C5.46666 7.77382 5.44687 7.93989 5.44687 8.11372C5.44687 9.3923 6.33388 10.4314 7.42536 10.4314C7.57374 10.4314 7.71555 10.4082 7.85404 10.3734L8.87296 11.567C8.43438 11.822 7.94638 11.9765 7.42536 11.9765C5.60515 11.9765 4.12787 10.246 4.12787 8.11372C4.12787 7.50341 4.25978 6.93171 4.47741 6.41411Z" fill="#CFDFFD"/>
</g>
</g>
</g>
</g>
<defs>
<clipPath id="clip0_23_266">
<rect width="14.5122" height="17" fill="white" transform="translate(0.170898)"/>
</clipPath>
</defs>
</svg>
