<svg width="18" height="19" viewBox="0 0 18 19" fill="none" xmlns="http://www.w3.org/2000/svg">
<path d="M11.2781 4.74687C11.34 4.99999 11.565 5.17437 11.8238 5.17437H15.1762C15.435 5.17437 15.66 4.99999 15.7219 4.74687L16.2956 2.44624C16.3462 2.24374 16.2787 2.02437 16.1213 1.88374C15.9637 1.74312 15.7387 1.70937 15.5419 1.78249L14.5519 2.17624L13.9669 1.29312C13.7587 0.97812 13.2412 0.97812 13.0275 1.29312L12.4425 2.17624L11.4525 1.78249C11.2556 1.70374 11.0362 1.74312 10.8731 1.88374C10.7156 2.02437 10.6481 2.23812 10.6988 2.44624L11.2725 4.74687H11.2781Z" fill="url(#paint0_linear_2050_55)"/>
<path d="M15.7387 6.10812C15.7387 5.79875 15.4856 5.54562 15.1762 5.54562H11.8237C11.5144 5.54562 11.2612 5.79875 11.2612 6.10812C11.2612 6.4175 11.5144 6.67062 11.8237 6.67062H15.1762C15.4856 6.67062 15.7387 6.4175 15.7387 6.10812Z" fill="url(#paint1_linear_2050_55)"/>
<path d="M16.875 16.25H1.125C0.81434 16.25 0.5625 16.5018 0.5625 16.8125V17.375C0.5625 17.6857 0.81434 17.9375 1.125 17.9375H16.875C17.1857 17.9375 17.4375 17.6857 17.4375 17.375V16.8125C17.4375 16.5018 17.1857 16.25 16.875 16.25Z" fill="url(#paint2_linear_2050_55)"/>
<path d="M10.6875 10.625C10.6875 10.3156 10.4344 10.0625 10.125 10.0625H7.875C7.56562 10.0625 7.3125 10.3156 7.3125 10.625V15.125H10.6875V10.625Z" fill="url(#paint3_linear_2050_55)"/>
<path d="M14.625 7.8125H12.375C12.0656 7.8125 11.8125 8.06562 11.8125 8.375V15.125H15.1875V8.375C15.1875 8.06562 14.9344 7.8125 14.625 7.8125Z" fill="url(#paint4_linear_2050_55)"/>
<path d="M6.1875 12.875C6.1875 12.5656 5.93438 12.3125 5.625 12.3125H3.375C3.06562 12.3125 2.8125 12.5656 2.8125 12.875V15.125H6.1875V12.875Z" fill="url(#paint5_linear_2050_55)"/>
<defs>
<linearGradient id="paint0_linear_2050_55" x1="13.4972" y1="1.05687" x2="13.4972" y2="5.17437" gradientUnits="userSpaceOnUse">
<stop stop-color="#01710C"/>
<stop offset="1" stop-color="#54627B"/>
</linearGradient>
<linearGradient id="paint1_linear_2050_55" x1="13.5" y1="5.54562" x2="13.5" y2="6.67062" gradientUnits="userSpaceOnUse">
<stop stop-color="#01710C"/>
<stop offset="1" stop-color="#54627B"/>
</linearGradient>
<linearGradient id="paint2_linear_2050_55" x1="9" y1="16.25" x2="9" y2="17.9375" gradientUnits="userSpaceOnUse">
<stop stop-color="#01710C"/>
<stop offset="1" stop-color="#54627B"/>
</linearGradient>
<linearGradient id="paint3_linear_2050_55" x1="9" y1="10.0625" x2="9" y2="15.125" gradientUnits="userSpaceOnUse">
<stop stop-color="#01710C"/>
<stop offset="1" stop-color="#54627B"/>
</linearGradient>
<linearGradient id="paint4_linear_2050_55" x1="13.5" y1="7.8125" x2="13.5" y2="15.125" gradientUnits="userSpaceOnUse">
<stop stop-color="#01710C"/>
<stop offset="1" stop-color="#54627B"/>
</linearGradient>
<linearGradient id="paint5_linear_2050_55" x1="4.5" y1="12.3125" x2="4.5" y2="15.125" gradientUnits="userSpaceOnUse">
<stop stop-color="#01710C"/>
<stop offset="1" stop-color="#54627B"/>
</linearGradient>
</defs>
</svg>
