<svg width="18" height="19" viewBox="0 0 18 19" fill="none" xmlns="http://www.w3.org/2000/svg">
<g id="fi_10475373">
<path id="Vector" d="M11.2781 4.74689C11.3399 5.00001 11.5649 5.17439 11.8237 5.17439H15.1762C15.4349 5.17439 15.6599 5.00001 15.7218 4.74689L16.2956 2.44626C16.3462 2.24376 16.2787 2.02438 16.1212 1.88376C15.9637 1.74313 15.7387 1.70938 15.5418 1.78251L14.5518 2.17626L13.9668 1.29313C13.7587 0.978135 13.2412 0.978135 13.0274 1.29313L12.4424 2.17626L11.4524 1.78251C11.2556 1.70376 11.0362 1.74313 10.8731 1.88376C10.7156 2.02438 10.6481 2.23813 10.6987 2.44626L11.2724 4.74689H11.2781Z" fill="#54627B"/>
<path id="Vector_2" d="M15.7387 6.10812C15.7387 5.79875 15.4856 5.54562 15.1762 5.54562H11.8237C11.5144 5.54562 11.2612 5.79875 11.2612 6.10812C11.2612 6.4175 11.5144 6.67062 11.8237 6.67062H15.1762C15.4856 6.67062 15.7387 6.4175 15.7387 6.10812Z" fill="#54627B"/>
<path id="Vector_3" d="M16.875 16.25H1.125C0.81434 16.25 0.5625 16.5018 0.5625 16.8125V17.375C0.5625 17.6857 0.81434 17.9375 1.125 17.9375H16.875C17.1857 17.9375 17.4375 17.6857 17.4375 17.375V16.8125C17.4375 16.5018 17.1857 16.25 16.875 16.25Z" fill="#54627B"/>
<path id="Vector_4" d="M10.6875 10.625C10.6875 10.3156 10.4344 10.0625 10.125 10.0625H7.875C7.56562 10.0625 7.3125 10.3156 7.3125 10.625V15.125H10.6875V10.625Z" fill="#54627B"/>
<path id="Vector_5" d="M14.625 7.8125H12.375C12.0656 7.8125 11.8125 8.06562 11.8125 8.375V15.125H15.1875V8.375C15.1875 8.06562 14.9344 7.8125 14.625 7.8125Z" fill="#54627B"/>
<path id="Vector_6" d="M6.1875 12.875C6.1875 12.5656 5.93438 12.3125 5.625 12.3125H3.375C3.06562 12.3125 2.8125 12.5656 2.8125 12.875V15.125H6.1875V12.875Z" fill="#54627B"/>
</g>
</svg>
