<svg width="18" height="17" viewBox="0 0 18 17" fill="none" xmlns="http://www.w3.org/2000/svg">
<g id="Icon">
<g id="UserOk">
<path id="Vector" d="M12.7692 16.5H1.44962C0.468617 16.5 -0.230031 15.5 0.0704238 14.5227L1.26138 10.6288C1.6451 9.37877 2.9519 8.73105 4.11752 9.20453C4.89219 9.51893 5.88767 9.76514 7.10759 9.76514C8.08498 9.76514 8.91756 9.60605 9.60897 9.38256C9.56553 9.90908 9.73205 10.4545 10.1194 10.856L11.7918 12.606C12.1248 12.9545 12.5701 13.1477 13.0407 13.1477C13.2651 13.1477 13.4859 13.1023 13.6886 13.0189L14.1484 14.5227C14.4488 15.5 13.7538 16.5 12.7692 16.5Z" fill="#54627B"/>
<path id="Vector_2" d="M7.11131 8.31061C9.17253 8.31061 10.8435 6.56214 10.8435 4.4053C10.8435 2.24846 9.17253 0.5 7.11131 0.5C5.0501 0.5 3.37915 2.24846 3.37915 4.4053C3.37915 6.56214 5.0501 8.31061 7.11131 8.31061Z" fill="#54627B"/>
<path id="Vector_3" d="M17.6959 6.42801C17.2905 6.00377 16.628 6.00377 16.2226 6.42801L13.0407 9.75756L12.1067 8.78029C11.7013 8.35604 11.0389 8.35604 10.6334 8.78029C10.228 9.20453 10.228 9.89392 10.6334 10.322L12.3058 12.072C12.7113 12.4962 13.3737 12.4962 13.7792 12.072L17.6959 7.96968C18.1014 7.54544 18.1014 6.85226 17.6959 6.42801Z" fill="#54627B"/>
</g>
</g>
</svg>
